# xmcd
#
# Track frame offsets: 
#        150
#        29828
#        50024
#        95788
#        123507
#        151466
#        170716
#        182554
#        232585
#
# Disc length: 3604 seconds
#
# Revision: 0
# Processed by: cddbd v1.5.1PL2 Copyright (c) Steve Scherf et al.
# Submitted via: ExactAudioCopy v0.95a3
#
DISCID=780e1209
DTITLE=Andi Hoffmann and B-Goes - Official Bootleg - Riding New Orleans
DYEAR=2005
DGENRE=Blues
TTITLE0=El Rancho Hotel
TTITLE1=We all should know that
TTITLE2=Riding to New Orleans
TTITLE3=Loaded with affection
TTITLE4=Hit the train right on
TTITLE5=Jellyfish heartache
TTITLE6=River Road
TTITLE7=Travel till I die - Memphis
TTITLE8=I liebe di fuer immer
EXTD=
EXTT0=
EXTT1=
EXTT2=
EXTT3=
EXTT4=
EXTT5=
EXTT6=
EXTT7=
EXTT8=
PLAYORDER=
